<svg width="174" height="245" viewBox="0 0 174 245" fill="none" xmlns="http://www.w3.org/2000/svg">
<path d="M71.9614 1.03746C71.5614 2.13746 70.0614 2.63746 67.6614 2.63746C65.2614 2.63746 64.5614 2.93746 65.4614 3.53746C66.3614 4.13746 66.4614 4.53746 65.6614 5.13746C64.7614 5.63746 64.7614 6.13746 65.6614 7.23746C66.5614 8.33746 67.1614 8.33746 69.6614 7.13746C73.6614 5.03746 75.4614 5.33746 72.6614 7.63746C71.3614 8.73746 70.5614 10.2375 70.8614 11.0375C71.2614 11.9375 70.5614 12.6375 68.8614 13.0375C65.7614 13.8375 61.7614 12.7375 63.5614 11.6375C64.2614 11.2375 64.4614 10.3375 64.0614 9.63746C63.4614 8.63746 63.0614 8.73746 62.4614 9.93746C61.9614 10.7375 59.4614 11.6375 56.3614 12.0375C53.4614 12.4375 50.3614 13.1375 49.5614 13.6375C48.2614 14.4375 48.3614 14.7375 50.0614 16.0375C52.5614 17.8375 51.1614 19.6375 46.9614 20.1375C45.4614 20.2375 43.2614 21.4375 42.2614 22.7375L40.2614 25.1375L41.0614 22.6375C41.4614 21.2375 42.8614 19.0375 44.1614 17.6375C45.7614 15.9375 46.1614 14.6375 45.5614 13.7375C44.8614 12.5375 44.3614 12.5375 43.2614 13.4375C42.5614 14.1375 41.6614 14.3375 41.2614 14.0375C40.9614 13.7375 40.2614 14.4375 39.5614 15.5375C38.9614 16.7375 37.5614 17.6375 36.5614 17.6375C34.4614 17.6375 33.7614 19.6375 35.8614 19.6375C36.4614 19.6375 36.1614 20.2375 35.0614 20.8375C33.9614 21.4375 31.9614 22.9375 30.5614 24.1375C29.1614 25.4375 27.0614 26.7375 25.8614 27.1375C24.5614 27.4375 23.5614 28.2375 23.5614 28.7375C23.5614 29.3375 22.2614 30.8375 20.6614 32.1375C18.7614 33.8375 17.5614 35.9375 17.1614 38.6375C16.7614 41.2375 16.0614 42.6375 15.0614 42.6375C14.2614 42.6375 13.5614 43.0375 13.5614 43.6375C13.5614 45.1375 17.6614 44.8375 20.5614 43.1375C24.4614 40.9375 25.4614 41.4375 21.7614 43.7375C18.4614 45.9375 17.8614 47.0375 19.6614 48.1375C20.2614 48.5375 19.1614 50.2375 17.0614 52.3375C13.2614 56.0375 12.3614 56.0375 12.1614 52.4375C11.9614 48.8375 8.96137 49.0375 7.66137 52.7375C7.06137 54.5375 6.56137 56.0375 6.56137 56.2375C6.56137 56.3375 7.46137 56.2375 8.56137 55.9375C11.4614 55.1375 11.0614 57.3375 7.46137 61.3375C4.66137 64.6375 4.36137 65.4375 4.56137 71.5375C4.66137 75.1375 4.66137 78.3375 4.56137 78.6375C4.26137 79.1375 3.96137 81.2375 2.96137 88.6375C2.66137 91.1375 1.96137 93.5375 1.46137 94.1375C0.261374 95.3375 0.361374 96.9375 1.56137 96.1375C2.16137 95.8375 2.56137 96.2375 2.56137 97.0375C2.56137 97.9375 2.16137 98.6375 1.66137 98.6375C0.661374 98.6375 -0.538626 103.737 0.261374 105.037C0.561374 105.437 1.16137 105.237 1.66137 104.537C2.16137 103.737 2.26137 105.737 1.86137 109.337C1.46137 113.337 1.66137 115.637 2.26137 115.637C2.86137 115.637 4.06137 117.637 4.96137 120.037C5.86137 122.437 7.46137 125.137 8.56137 126.137C9.66137 127.137 11.3614 130.237 12.4614 133.137C13.5614 136.037 15.7614 140.537 17.4614 143.237C19.1614 145.837 20.5614 149.037 20.5614 150.337C20.5614 151.637 21.4614 153.637 22.5614 154.837C23.6614 156.037 24.5614 157.737 24.5614 158.537C24.6614 161.837 33.8614 174.337 39.8614 179.337C40.6614 179.937 41.5614 182.237 41.9614 184.537C42.4614 188.137 42.9614 188.637 46.3614 189.537C53.6614 191.637 53.5614 191.937 50.4614 177.837C48.9614 171.337 47.5614 167.437 46.1614 166.137C37.0614 157.337 25.2614 137.937 23.8614 129.337C23.0614 124.337 26.0614 115.037 29.0614 113.037C33.5614 110.137 41.5614 113.137 41.5614 117.737C41.5614 119.637 41.4614 119.637 38.0614 117.737C31.4614 114.237 27.5614 117.037 27.5614 125.037C27.5614 128.737 27.8614 129.737 28.5614 128.637C29.1614 127.637 29.5614 127.537 29.5614 128.337C29.5614 130.837 31.1614 129.537 32.4614 126.037C33.8614 122.137 35.7614 120.837 37.7614 122.537C38.4614 123.237 39.9614 124.337 41.0614 125.037C42.9614 126.337 42.8614 126.537 39.7614 129.137C37.5614 131.037 36.5614 132.637 36.5614 134.737C36.5614 136.337 37.0614 137.637 37.5614 137.637C38.1614 137.637 38.5614 137.237 38.5614 136.837C38.5614 135.537 42.7614 133.937 44.8614 134.437C46.7614 134.837 47.1614 136.137 45.5614 137.137C44.9614 137.437 44.5614 138.637 44.5614 139.737C44.5614 141.137 45.2614 141.637 47.5614 141.637C50.2614 141.637 50.4614 141.337 49.9614 138.837C49.6614 137.137 50.3614 134.437 51.7614 131.637C53.8614 127.637 54.4614 127.137 57.0614 127.537C61.0614 127.937 60.8614 127.837 63.6614 133.637C65.1614 136.837 66.6614 138.637 67.7614 138.637C68.9614 138.637 69.5614 139.437 69.5614 140.837C69.5614 142.537 69.2614 142.737 68.6614 141.737C68.1614 141.037 67.2614 140.537 66.6614 140.737C65.8614 141.037 66.0614 141.837 67.0614 143.337C67.9614 144.537 69.2614 145.337 69.9614 145.037C71.7614 144.337 72.6614 139.637 71.3614 137.237C70.6614 135.937 70.6614 135.137 71.4614 134.637C72.2614 134.237 71.9614 133.137 70.4614 131.237C66.2614 125.937 67.1614 108.437 72.0614 102.137C73.6614 99.9375 74.1614 98.2375 73.8614 96.2375C73.3614 94.0375 74.0614 92.7375 77.2614 89.3375C81.3614 84.9375 82.4614 81.2375 79.9614 80.2375C78.9614 79.8375 78.6614 80.0375 79.1614 80.9375C79.6614 81.6375 79.2614 81.6375 78.1614 80.7375C76.8614 79.6375 76.7614 79.1375 77.7614 78.4375C78.6614 77.7375 78.1614 77.6375 76.3614 77.9375C74.4614 78.2375 73.8614 77.9375 74.2614 76.9375C74.5614 76.2375 74.2614 75.6375 73.5614 75.6375C72.9614 75.6375 72.7614 75.1375 73.1614 74.5375C73.5614 73.7375 73.1614 73.6375 71.6614 74.1375C70.3614 74.5375 69.5614 74.3375 69.5614 73.6375C69.5614 73.0375 69.1614 72.8375 68.5614 73.1375C67.1614 74.0375 67.3614 72.4375 68.9614 70.1375C69.6614 69.0375 70.2614 67.4375 70.3614 66.6375C70.5614 63.1375 72.9614 55.3375 73.3614 56.9375C73.5614 57.8375 74.1614 58.4375 74.6614 58.1375C75.1614 57.7375 75.1614 56.7375 74.4614 55.5375C73.7614 54.0375 73.7614 53.1375 74.6614 52.0375C76.1614 50.1375 77.6614 50.2375 76.9614 52.1375C76.5614 53.2375 76.7614 53.4375 77.8614 53.1375C79.5614 52.4375 81.8614 47.8375 81.0614 46.5375C80.6614 46.0375 80.8614 45.6375 81.4614 45.6375C82.0614 45.6375 82.9614 46.5375 83.5614 47.7375C84.2614 48.8375 84.9614 49.5375 85.2614 49.2375C85.5614 48.9375 86.4614 49.4375 87.1614 50.4375C88.3614 51.9375 88.4614 51.9375 88.5614 49.5375C88.5614 47.0375 91.9614 44.1375 94.1614 44.7375C96.7614 45.4375 115.561 43.3375 115.561 42.3375C115.561 41.5375 115.861 41.5375 116.661 42.3375C117.561 43.2375 118.561 43.1375 120.661 42.1375C122.161 41.3375 123.561 40.3375 123.761 39.8375C124.061 39.0375 136.761 39.8375 144.361 41.1375C146.861 41.6375 149.261 42.7375 150.061 43.9375C151.861 46.4375 155.061 45.5375 154.261 42.6375C153.961 41.5375 154.061 40.6375 154.461 40.6375C154.861 40.6375 155.761 38.5375 156.561 35.8375C158.661 28.7375 158.761 27.8375 157.061 30.8375C155.261 34.0375 154.261 34.4375 154.761 31.8375C154.961 30.9375 154.461 29.4375 153.561 28.6375C152.661 27.8375 151.561 26.2375 151.261 25.2375C150.561 23.3375 150.461 23.3375 149.061 25.2375C148.261 26.2375 147.561 26.6375 147.561 25.9375C147.561 24.6375 142.061 22.5375 140.161 23.2375C137.361 24.3375 129.061 21.5375 125.861 18.3375C124.061 16.6375 122.561 14.7375 122.561 14.0375C122.561 11.7375 119.861 10.4375 117.761 11.7375C116.061 12.8375 115.461 12.6375 113.161 10.0375C111.061 7.63746 110.661 7.43746 110.561 8.93746C110.561 10.3375 110.061 10.6375 108.561 10.1375C107.461 9.83746 106.561 9.83746 106.561 10.3375C106.561 11.4375 112.461 15.2375 113.761 14.8375C114.261 14.7375 115.461 15.3375 116.261 16.3375C117.061 17.3375 117.361 17.5375 116.961 16.7375C116.561 15.8375 116.661 15.5375 117.361 15.9375C117.861 16.3375 118.261 17.4375 118.061 18.4375C117.861 19.3375 117.661 20.8375 117.561 21.6375C117.461 22.5375 117.061 22.3375 116.561 20.9375C115.661 18.6375 112.561 18.7375 112.561 21.0375C112.461 21.6375 111.661 21.1375 110.661 19.8375C109.361 18.3375 108.561 18.0375 108.261 18.8375C107.961 19.5375 107.661 19.2375 107.661 18.1375C107.461 15.8375 103.661 10.4375 103.561 12.4375C103.561 13.1375 104.061 14.6375 104.561 15.7375C105.161 16.7375 105.361 17.6375 105.061 17.6375C104.761 17.6375 103.761 16.0375 102.961 14.0375C102.061 11.9375 100.561 10.1375 99.2614 9.83746L97.0614 9.23746L99.2614 8.73746C102.361 7.93746 100.661 5.43746 96.8614 5.23746C95.1614 5.13746 93.2614 4.63746 92.4614 4.03746C89.5614 1.63746 84.5614 -0.462539 84.5614 0.737461C84.5614 1.33746 85.4614 2.03746 86.5614 2.33746C88.7614 2.93746 88.7614 4.73746 86.5614 5.43746C85.7614 5.73746 85.5614 5.43746 86.0614 4.63746C86.6614 3.73746 85.9614 3.53746 83.2614 3.83746C81.2614 4.03746 79.9614 3.83746 80.1614 3.43746C80.4614 3.03746 80.1614 2.63746 79.5614 2.63746C78.9614 2.63746 78.6614 2.23746 79.0614 1.73746C79.3614 1.23746 79.1614 0.537461 78.6614 0.137461C78.1614 -0.162539 77.2614 0.337461 76.7614 1.23746C75.9614 2.63746 75.7614 2.63746 74.2614 1.13746C72.7614 -0.362539 72.4614 -0.362539 71.9614 1.03746Z" fill="black"/>
<path d="M102.561 8.53759C102.561 9.03759 103.261 9.73759 104.161 10.0376C105.561 10.5376 105.661 10.4376 104.561 9.13759C103.161 7.43759 102.561 7.23759 102.561 8.53759Z" fill="black"/>
<path d="M120.561 8.6377C120.561 9.1377 120.961 9.6377 121.461 9.6377C122.061 9.6377 122.761 9.1377 123.061 8.6377C123.361 8.0377 122.961 7.6377 122.161 7.6377C121.261 7.6377 120.561 8.0377 120.561 8.6377Z" fill="black"/>
<path d="M47.5614 10.6373C46.7614 11.1373 46.3614 11.8373 46.6614 12.1373C47.0614 12.4373 47.8614 12.0373 48.5614 11.1373C49.9614 9.43735 49.6614 9.23735 47.5614 10.6373Z" fill="black"/>
<path d="M128.661 13.3377C130.461 15.4377 132.361 17.0377 132.761 16.8377C133.161 16.7377 133.561 17.0377 133.561 17.6377C133.561 18.1377 134.261 18.6377 135.061 18.6377C135.861 18.6377 136.561 18.2377 136.561 17.8377C136.561 16.2377 128.961 9.6377 127.161 9.6377C125.661 9.6377 125.961 10.3377 128.661 13.3377Z" fill="black"/>
<path d="M137.561 17.8376C137.561 18.5376 138.461 19.7376 139.561 20.3376C141.261 21.5376 141.361 21.4376 140.661 19.4376C139.761 16.9376 137.561 15.8376 137.561 17.8376Z" fill="black"/>
<path d="M13.5614 38.6377C13.5614 39.1377 13.9614 39.6377 14.4614 39.6377C15.0614 39.6377 15.7614 39.1377 16.0614 38.6377C16.3614 38.0377 15.9614 37.6377 15.1614 37.6377C14.2614 37.6377 13.5614 38.0377 13.5614 38.6377Z" fill="black"/>
<path d="M8.6614 47.2376C8.6614 48.3376 8.9614 48.6376 9.2614 47.8376C9.5614 47.1376 9.4614 46.2376 9.1614 45.9376C8.8614 45.5376 8.5614 46.1376 8.6614 47.2376Z" fill="black"/>
<path d="M153.661 48.2376C153.661 49.3376 153.961 49.6376 154.261 48.8376C154.561 48.1376 154.461 47.2376 154.161 46.9376C153.861 46.5376 153.561 47.1376 153.661 48.2376Z" fill="black"/>
<path d="M155.561 52.0377C155.561 53.4377 155.961 54.7377 156.361 55.0377C156.861 55.3377 156.961 54.2377 156.761 52.5377C156.261 49.0377 155.561 48.7377 155.561 52.0377Z" fill="black"/>
<path d="M161.361 56.2377C160.961 56.5377 160.961 57.5377 161.261 58.3377C161.561 59.1377 161.361 60.1377 160.661 60.5377C159.261 61.4377 160.261 64.6377 162.061 64.6377C162.761 64.6377 163.861 63.9377 164.561 63.0377C166.761 60.5377 163.561 53.9377 161.361 56.2377Z" fill="black"/>
<path d="M157.561 86.7377C155.961 89.5377 156.961 90.1377 161.261 89.0377C163.561 88.5377 165.161 87.4377 165.361 86.3377C165.861 83.6377 158.961 83.9377 157.561 86.7377Z" fill="black"/>
<path d="M119.061 89.8374C117.461 90.3374 114.061 91.0374 111.561 91.5374C108.661 91.9374 107.161 92.7374 107.361 93.5374C107.661 95.1374 105.361 97.1374 100.361 99.4374C96.3613 101.237 95.7613 102.137 97.8613 102.937C99.6613 103.637 103.761 101.837 103.061 100.637C102.761 100.137 103.361 99.6374 104.461 99.6374C105.561 99.6374 106.661 99.2374 106.961 98.7374C107.461 97.9374 112.761 97.0374 121.761 96.0374C124.161 95.8374 125.561 96.1374 125.861 97.0374C126.261 98.0374 124.061 98.9374 117.561 100.437C108.261 102.637 98.5613 106.837 98.5613 108.837C98.5613 109.537 100.261 109.737 104.361 109.137C107.461 108.737 110.661 108.437 111.361 108.337C111.961 108.337 112.561 108.037 112.561 107.637C112.561 107.337 114.161 107.237 116.161 107.437C118.761 107.737 120.061 107.337 121.061 106.037C122.361 104.237 122.461 104.237 122.561 105.837C122.561 108.037 125.861 108.237 127.961 106.137C128.761 105.337 130.261 104.637 131.261 104.637C135.661 104.537 138.861 97.4374 135.061 96.0374C134.261 95.6374 133.561 94.6374 133.561 93.6374C133.561 92.6374 132.961 91.3374 132.161 90.7374C130.361 89.2374 122.761 88.7374 119.061 89.8374Z" fill="black"/>
<path d="M151.961 98.0377C148.261 101.738 148.161 103.638 151.761 103.638C153.161 103.638 153.561 103.138 153.261 102.138C152.361 99.9377 154.461 99.2377 156.561 101.138C158.761 103.138 162.061 102.738 162.061 100.638C162.061 99.8377 162.761 99.1377 163.561 99.0377C166.861 98.8377 167.561 98.6377 167.561 97.7377C167.561 96.6377 165.861 96.0377 159.761 95.1377C155.861 94.5377 155.261 94.7377 151.961 98.0377Z" fill="black"/>
<path d="M166.561 132.937C166.561 133.237 167.661 135.237 169.061 137.237C170.461 139.237 171.561 142.037 171.561 143.437C171.561 145.237 171.861 145.737 172.561 145.037C174.261 143.337 172.561 138.037 169.461 135.037C167.861 133.537 166.561 132.537 166.561 132.937Z" fill="black"/>
<path d="M141.861 135.338C141.161 135.538 140.561 136.538 140.561 137.338C140.561 138.838 138.661 138.838 134.061 137.138C132.361 136.538 132.361 136.738 134.461 138.538C135.961 139.938 138.161 140.638 140.561 140.638C142.661 140.638 145.661 141.138 147.261 141.738C150.361 143.038 155.561 142.938 157.061 141.538C157.561 140.938 157.561 140.638 156.761 140.638C156.061 140.638 155.561 139.938 155.561 139.038C155.561 136.238 146.061 133.638 141.861 135.338Z" fill="black"/>
<path d="M162.961 155.138C163.961 157.738 157.861 159.938 148.661 160.238C144.061 160.438 139.761 161.038 139.161 161.638C137.861 162.638 136.561 162.038 136.561 160.538C136.561 159.438 145.561 156.638 149.261 156.638C151.061 156.638 152.561 156.238 152.561 155.838C152.561 154.238 139.361 155.538 132.461 157.838C120.261 161.738 124.861 165.638 141.661 165.638C154.461 165.638 162.361 162.938 165.061 157.638C166.961 153.838 166.961 153.638 164.461 153.638C162.961 153.638 162.561 154.138 162.961 155.138Z" fill="black"/>
<path d="M57.5614 164.638C57.5614 165.738 58.0614 166.638 58.5614 166.638C59.1614 166.638 59.5614 165.738 59.5614 164.638C59.5614 163.538 59.1614 162.638 58.5614 162.638C58.0614 162.638 57.5614 163.538 57.5614 164.638Z" fill="black"/>
<path d="M70.5614 175.538C70.5614 176.238 71.6614 178.238 73.0614 180.038C83.3614 192.738 88.3614 198.038 91.9614 200.038C97.9614 203.538 118.461 210.438 125.361 211.238C130.361 211.738 131.861 211.538 136.161 209.338C139.761 207.538 142.761 206.838 147.361 206.738C157.161 206.638 158.261 205.038 148.961 204.438C142.761 204.038 136.661 202.438 120.761 197.238C95.9614 188.938 86.3614 184.338 75.9614 175.738C75.2614 175.138 74.3614 175.238 73.6614 175.938C72.7614 176.838 72.2614 176.738 71.5614 175.638C70.7614 174.438 70.5614 174.438 70.5614 175.538Z" fill="black"/>
<path d="M151.361 176.337C149.961 176.537 148.461 177.437 148.161 178.237C147.461 180.037 147.461 180.037 152.161 177.637C154.261 176.637 155.661 175.737 155.061 175.837C154.561 175.937 152.861 176.137 151.361 176.337Z" fill="black"/>
<path d="M144.561 177.638C144.561 178.138 145.061 178.638 145.561 178.638C146.161 178.638 146.561 178.138 146.561 177.638C146.561 177.038 146.161 176.638 145.561 176.638C145.061 176.638 144.561 177.038 144.561 177.638Z" fill="black"/>
<path d="M49.2614 212.338C48.8614 212.638 48.5614 213.438 48.5614 214.038C48.5614 214.638 49.0614 214.538 49.7614 213.838C50.3614 213.238 50.6614 212.438 50.4614 212.138C50.1614 211.838 49.5614 211.938 49.2614 212.338Z" fill="black"/>
<path d="M48.5614 230.737C48.5614 231.237 49.0614 231.437 49.5614 231.137C50.1614 230.837 50.5614 230.337 50.5614 230.037C50.5614 229.837 50.1614 229.637 49.5614 229.637C49.0614 229.637 48.5614 230.137 48.5614 230.737Z" fill="black"/>
<path d="M50.0614 234.638C49.7614 235.138 49.9614 235.638 50.4614 235.638C51.0614 235.638 51.5614 235.138 51.5614 234.638C51.5614 234.038 51.3614 233.638 51.1614 233.638C50.8614 233.638 50.3614 234.038 50.0614 234.638Z" fill="black"/>
<path d="M85.0614 241.638C84.7614 242.138 84.7614 242.638 85.2614 242.638C85.6614 242.638 88.1614 243.338 90.7614 244.138C93.5614 244.938 95.7614 245.138 96.0614 244.638C96.3614 244.138 94.8614 243.338 92.5614 243.038C90.3614 242.638 88.5614 242.038 88.5614 241.538C88.5614 240.338 85.8614 240.438 85.0614 241.638Z" fill="black"/>
<path d="M54.5614 243.737C54.5614 244.237 55.0614 244.437 55.5614 244.137C56.1614 243.837 56.5614 243.337 56.5614 243.037C56.5614 242.837 56.1614 242.637 55.5614 242.637C55.0614 242.637 54.5614 243.137 54.5614 243.737Z" fill="black"/>
</svg>
